# File created by Blade
# Date/Time:  Tue Jan 27 17:01:45 2015
#---------------------------------------------------------
:version 1.10
:name HOM
:units
  mass 1.0
  length 1.000000
  angle deg
:documentation
     Acclaim Skeleton File
:root
   axis xyz
   order TX TY TZ RX RY RZ
   position 0.000000 0.000000 0.000000
   orientation 0 0 0
:bonedata
   begin
      id 1
      name Spine_dum
      direction 0.000000 1.000000 0.000000
      length 7.539951
      axis 0.0 0.0 0.0 xyz
   end
   begin
      id 2
      name LeftUpLeg_dum
      direction 1.000000 0.000000 0.000000
      length 3.345476
      axis 0.0 0.0 0.0 xyz
   end
   begin
      id 3
      name RightUpLeg_dum
      direction -1.000000 0.000000 0.000000
      length 3.345476
      axis 0.0 0.0 0.0 xyz
   end
   begin
      id 4
      name Spine
      direction 0.000000 1.000000 0.000000
      length 0.000000
      axis 0.0 0.0 0.0 xyz
      dof rx ry rz
   end
   begin
      id 5
      name Spine_dum1
      direction 0.000000 1.000000 0.000000
      length 15.093809
      axis 0.0 0.0 0.0 xyz
   end
   begin
      id 6
      name Spine_dum2
      direction 0.000000 1.000000 0.000000
      length 9.738928
      axis 0.0 0.0 0.0 xyz
   end
   begin
      id 7
      name Spine_dum3
      direction 0.000000 1.000000 0.000000
      length 9.738928
      axis 0.0 0.0 0.0 xyz
   end
   begin
      id 8
      name Head
      direction 0.000000 1.000000 0.000000
      length 4.527550
      axis 0.0 0.0 0.0 xyz
      dof rx ry rz
   end
   begin
      id 9
      name LeftShoulder
      direction 1.000000 0.000000 0.000000
      length 7.084015
      axis 0.0 0.0 -90.0 xyz
      dof rx ry rz
   end
   begin
      id 10
      name LeftArm
      direction 1.000000 0.000000 0.000000
      length 10.259319
      axis 0.0 0.0 -90.0 xyz
      dof rx ry rz
   end
   begin
      id 11
      name LeftForeArm
      direction 1.000000 0.000000 0.000000
      length 9.896984
      axis 0.0 0.0 -90.0 xyz
      dof ry rz rx
   end
   begin
      id 12
      name LeftHand
      direction 0.000000 0.000000 0.000000
      length 0.000000
      axis 0.0 0.0 -90.0 xyz
      dof rx ry rz
   end
   begin
      id 13
      name LeftHand_dum1
      direction 0.000000 0.000000 0.000000
      length 0.000000
      axis 0.0 0.0 -90.0 xyz
   end
   begin
      id 14
      name LeftHand_dum2
      direction 1.000000 0.000000 0.000000
      length 3.937000
      axis 0.0 0.0 -90.0 xyz
   end
   begin
      id 15
      name LeftHandThumb1
      direction 0.000000 0.000000 1.000000
      length 3.937000
      axis 0.0 0.0 -90.0 xyz
      dof rx rz ry
   end
   begin
      id 16
      name RightShoulder
      direction -1.000000 0.000000 0.000000
      length 7.084015
      axis 0.0 0.0 90.0 xyz
      dof rx ry rz
   end
   begin
      id 17
      name RightArm
      direction -1.000000 0.000000 0.000000
      length 10.259319
      axis 0.0 0.0 90.0 xyz
      dof rx ry rz
   end
   begin
      id 18
      name RightForeArm
      direction -1.000000 0.000000 0.000000
      length 9.896984
      axis 0.0 0.0 90.0 xyz
      dof ry rz rx
   end
   begin
      id 19
      name RightHand
      direction 0.000000 0.000000 0.000000
      length 0.000000
      axis 0.0 0.0 90.0 xyz
      dof rx ry rz
   end
   begin
      id 20
      name RightHand_dum1
      direction 0.000000 0.000000 0.000000
      length 0.000000
      axis 0.0 0.0 90.0 xyz
   end
   begin
      id 21
      name RightHand_dum2
      direction -1.000000 0.000000 0.000000
      length 3.937000
      axis 0.0 0.0 90.0 xyz
   end
   begin
      id 22
      name RightHandThumb1
      direction 0.000000 0.000000 1.000000
      length 3.937000
      axis 0.0 0.0 90.0 xyz
      dof rx rz ry
   end
   begin
      id 23
      name LeftUpLeg
      direction 0.000000 -1.000000 0.000000
      length 19.114733
      axis 0.0 0.0 0.0 xyz
      dof rx ry rz
   end
   begin
      id 24
      name LeftLeg
      direction 0.000000 -1.000000 0.000000
      length 16.045604
      axis 0.0 0.0 0.0 xyz
      dof rx ry rz
   end
   begin
      id 25
      name LeftFoot
      direction 0.000000 -0.258819 0.965926
      length 5.543155
      axis 15.0 0.0 0.0 xyz
      dof rx ry rz
   end
   begin
      id 26
      name LeftToeBase
      direction 0.000000 0.000000 1.000000
      length 2.952750
      axis 0.0 0.0 0.0 xyz
      dof rx ry rz
   end
   begin
      id 27
      name RightUpLeg
      direction 0.000000 -1.000000 0.000000
      length 19.114733
      axis 0.0 0.0 0.0 xyz
      dof rx ry rz
   end
   begin
      id 28
      name RightLeg
      direction 0.000000 -1.000000 0.000000
      length 16.045604
      axis 0.0 0.0 0.0 xyz
      dof rx ry rz
   end
   begin
      id 29
      name RightFoot
      direction 0.000000 -0.258819 0.965926
      length 5.543155
      axis 15.0 0.0 0.0 xyz
      dof rx ry rz
   end
   begin
      id 30
      name RightToeBase
      direction 0.000000 0.000000 1.000000
      length 2.952750
      axis 0.0 0.0 0.0 xyz
      dof rx ry rz
   end
:hierarchy
   begin
      root Spine_dum LeftUpLeg_dum RightUpLeg_dum
      Spine_dum Spine
      LeftUpLeg_dum LeftUpLeg
      RightUpLeg_dum RightUpLeg
      Spine Spine_dum1 Spine_dum2 Spine_dum3
      Spine_dum1 Head
      Spine_dum2 LeftShoulder
      Spine_dum3 RightShoulder
      LeftShoulder LeftArm
      LeftArm LeftForeArm
      LeftForeArm LeftHand
      LeftHand LeftHand_dum1 LeftHand_dum2
      LeftHand_dum1 LeftHandThumb1
      RightShoulder RightArm
      RightArm RightForeArm
      RightForeArm RightHand
      RightHand RightHand_dum1 RightHand_dum2
      RightHand_dum1 RightHandThumb1
      LeftUpLeg LeftLeg
      LeftLeg LeftFoot
      LeftFoot LeftToeBase
      RightUpLeg RightLeg
      RightLeg RightFoot
      RightFoot RightToeBase
   end

# File created by Blade
# Date/Time:  Tue Jan 27 17:01:38 2015
# Frame Rate: 120.000 fps
#------------------------------------------------------
:FULLY-SPECIFIED
:DEGREES
484
root -0.879797 36.845054 5.263445 7.503460 -20.161854 -3.583239
Spine -3.087617 -1.109906 -1.173374
Head -0.260804 -0.029211 6.469624
LeftShoulder 0.811019 -5.943165 1.733800
LeftArm 7.959053 14.010984 -64.708854
LeftForeArm -59.850733 -0.000000 136.654593
LeftHand 5.643916 -0.000000 -33.536148
LeftHandThumb1 -26.253704 0.000000 33.147579
RightShoulder -2.808194 -23.020353 1.939896
RightArm 26.810696 -34.910578 50.813657
RightForeArm -153.780938 -0.000000 35.200000
RightHand -1.651753 0.000000 -1.845180
RightHandThumb1 -24.326973 -0.000000 -32.862282
LeftUpLeg -0.838524 24.022893 5.841173
LeftLeg 8.641129 -0.000000 -0.000000
LeftFoot -22.448043 10.317399 -24.492837
LeftToeBase 14.791495 -0.000000 -0.000000
RightUpLeg -8.297799 1.508580 -0.119782
RightLeg 9.227421 -0.000000 -0.000000
RightFoot -11.194105 3.770459 11.766457
RightToeBase 10.652720 -0.000000 -0.000000
485
root -0.877981 36.844857 5.266252 7.509548 -20.210750 -3.594164
Spine -3.099348 -1.115370 -1.178434
Head -0.250001 -0.052976 6.468300
LeftShoulder 0.812186 -5.973663 1.708863
LeftArm 7.951280 14.195074 -64.714409
LeftForeArm -60.137260 -0.000000 136.448699
LeftHand 5.502560 0.000000 -33.085322
LeftHandThumb1 -26.253704 0.000000 33.147579
RightShoulder -2.808198 -23.040425 1.956632
RightArm 26.780072 -34.959491 50.808635
RightForeArm -153.839779 -0.000000 35.201351
RightHand -1.663690 -0.000000 -1.755593
RightHandThumb1 -24.326973 -0.000000 -32.862282
LeftUpLeg -0.825569 24.023899 5.843327
LeftLeg 8.637325 -0.000000 -0.000000
LeftFoot -22.473834 10.356663 -24.489485
LeftToeBase 14.813646 -0.000000 -0.000000
RightUpLeg -8.291182 1.504640 -0.114379
RightLeg 9.203918 -0.000000 -0.000000
RightFoot -11.129219 3.788646 11.640567
RightToeBase 10.390738 -0.000000 -0.000000
486
root -0.875985 36.844779 5.267815 7.515291 -20.251859 -3.602683
Spine -3.112572 -1.112828 -1.190855
Head -0.219605 -0.065930 6.501731
LeftShoulder 0.819576 -5.953377 1.688050
LeftArm 8.007532 14.380150 -64.673389
LeftForeArm -60.434243 -0.000000 136.156889
LeftHand 5.415960 0.000000 -32.737907
LeftHandThumb1 -26.253704 0.000000 33.147579
RightShoulder -2.803732 -23.049311 1.979404
RightArm 26.731280 -35.007411 50.818019
RightForeArm -153.758267 0.000000 35.173334
RightHand -1.731517 -0.000000 -1.812786
RightHandThumb1 -24.326973 -0.000000 -32.862282
LeftUpLeg -0.815839 24.011267 5.842119
LeftLeg 8.630295 -0.000000 -0.000000
LeftFoot -22.501607 10.399419 -24.513812
LeftToeBase 14.807409 -0.000000 -0.000000
RightUpLeg -8.291696 1.507425 -0.111422
RightLeg 9.195232 -0.000000 -0.000000
RightFoot -11.115081 3.800978 11.611574
RightToeBase 10.423947 -0.000000 -0.000000
487
root -0.874078 36.844872 5.270172 7.552813 -20.311270 -3.603771
Spine -3.173594 -1.165292 -1.198524
Head -0.203466 -0.022307 6.473498
LeftShoulder 0.731195 -5.893621 1.652683
LeftArm 8.077991 14.547737 -64.607827
LeftForeArm -60.804346 0.000000 135.835829
LeftHand 5.445854 -0.000000 -32.261871
LeftHandThumb1 -26.253704 0.000000 33.147579
RightShoulder -2.747502 -23.059556 1.966936
RightArm 26.701960 -35.077891 50.829036
RightForeArm -153.795153 -0.000000 35.124292
RightHand -1.770093 -0.000000 -1.856323
RightHandThumb1 -24.326973 -0.000000 -32.862282
LeftUpLeg -0.837222 24.021857 5.818300
LeftLeg 8.620092 -0.000000 -0.000000
LeftFoot -22.524912 10.433067 -24.544984
LeftToeBase 14.831333 -0.000000 -0.000000
RightUpLeg -8.324294 1.548085 -0.121801
RightLeg 9.178442 -0.000000 -0.000000
RightFoot -11.106242 3.809979 11.618744
RightToeBase 10.464224 -0.000000 -0.000000
488
root -0.869376 36.845206 5.267919 7.634475 -20.363836 -3.600758
Spine -3.290571 -1.192670 -1.215928
Head -0.162036 0.008207 6.474197
LeftShoulder 0.690042 -5.852484 1.618184
LeftArm 8.115143 14.749345 -64.552718
LeftForeArm -61.158078 0.000000 135.476207
LeftHand 5.332638 -0.000000 -31.796730
LeftHandThumb1 -26.253704 0.000000 33.147579
RightShoulder -2.728279 -23.097045 1.973543
RightArm 26.699846 -35.123561 50.828140
RightForeArm -153.827123 -0.000000 35.073156
RightHand -1.726817 -0.000000 -1.908478
RightHandThumb1 -24.326973 -0.000000 -32.862282
LeftUpLeg -0.928271 24.031402 5.765374
LeftLeg 8.631001 -0.000000 -0.000000
LeftFoot -22.547997 10.474808 -24.560100
LeftToeBase 14.827787 -0.000000 -0.000000
RightUpLeg -8.422751 1.582337 -0.138305
RightLeg 9.187491 -0.000000 -0.000000
RightFoot -11.094216 3.829618 11.631369
RightToeBase 10.423558 -0.000000 -0.000000
489
root -0.864614 36.844996 5.265073 7.626083 -20.383824 -3.611041
Spine -3.279106 -1.135399 -1.221315
Head -0.132479 -0.076822 6.476457
LeftShoulder 0.812212 -5.817161 1.551141
LeftArm 8.145636 14.872884 -64.516589
LeftForeArm -61.643405 0.000000 135.052251
LeftHand 5.183935 -0.000000 -31.329576
LeftHandThumb1 -26.253704 0.000000 33.147579
RightShoulder -2.768063 -23.089897 2.004236
RightArm 26.655025 -35.137467 50.856999
RightForeArm -153.943054 -0.000000 35.030932
RightHand -1.711113 -0.000000 -1.816807
RightHandThumb1 -24.326973 -0.000000 -32.862282
LeftUpLeg -0.927019 23.992760 5.767985
LeftLeg 8.649447 -0.000000 -0.000000
LeftFoot -22.576739 10.518653 -24.575507
LeftToeBase 14.800818 -0.000000 -0.000000
RightUpLeg -8.423550 1.590471 -0.135128
RightLeg 9.194248 -0.000000 -0.000000
RightFoot -11.082464 3.847954 11.641276
RightToeBase 10.400812 -0.000000 -0.000000
490
root -0.861275 36.844822 5.264654 7.622959 -20.410877 -3.615784
Spine -3.277755 -1.137400 -1.228951
Head -0.118725 -0.072246 6.487032
LeftShoulder 0.858473 -5.816851 1.483223
LeftArm 8.155415 15.046366 -64.425342
LeftForeArm -62.208108 -0.000000 134.578716
LeftHand 4.896166 -0.000000 -30.763887
LeftHandThumb1 -26.253704 0.000000 33.147579
RightShoulder -2.767931 -23.085228 2.012346
RightArm 26.642117 -35.181281 50.870326
RightForeArm -153.968460 -0.000000 34.950440
RightHand -1.729948 -0.000000 -1.829857
RightHandThumb1 -24.326973 -0.000000 -32.862282
LeftUpLeg -0.923821 24.000449 5.767957
LeftLeg 8.661831 -0.000000 -0.000000
LeftFoot -22.592571 10.526771 -24.573068
LeftToeBase 14.809931 -0.000000 -0.000000
RightUpLeg -8.426480 1.597165 -0.140193
RightLeg 9.195242 -0.000000 -0.000000
RightFoot -11.070806 3.896670 11.662897
RightToeBase 10.441296 -0.000000 -0.000000
491
root -0.856785 36.844934 5.264572 7.622043 -20.445397 -3.612430
Spine -3.275936 -1.157200 -1.241374
Head -0.115797 -0.034574 6.521755
LeftShoulder 0.829969 -5.754206 1.411426
LeftArm 8.257107 15.251567 -64.326082
LeftForeArm -62.563016 0.000000 133.981703
LeftHand 4.890919 -0.000000 -30.427373
LeftHandThumb1 -26.253704 0.000000 33.147579
RightShoulder -2.774107 -23.079950 2.026806
RightArm 26.672914 -35.230597 50.843459
RightForeArm -154.047148 -0.000000 34.870245
RightHand -1.744581 -0.000000 -1.808855
RightHandThumb1 -24.326973 -0.000000 -32.862282
LeftUpLeg -0.926617 24.006507 5.749660
LeftLeg 8.681708 -0.000000 -0.000000
LeftFoot -22.531201 10.578551 -24.404275
LeftToeBase 14.583920 -0.000000 -0.000000
RightUpLeg -8.433676 1.637816 -0.156559
RightLeg 9.197542 -0.000000 -0.000000
RightFoot -11.061476 3.887584 11.677950
RightToeBase 10.438241 -0.000000 -0.000000
492
root -0.853134 36.845066 5.264076 7.621860 -20.486376 -3.614239
Spine -3.279133 -1.174384 -1.246312
Head -0.101638 -0.023646 6.509169
LeftShoulder 0.823001 -5.762877 1.344380
LeftArm 8.220909 15.432755 -64.289025
LeftForeArm -63.156400 -0.000000 133.335943
LeftHand 4.557563 -0.000000 -30.244443
LeftHandThumb1 -26.253704 0.000000 33.147579
RightShoulder -2.758928 -23.071095 2.022479
RightArm 26.688893 -35.266692 50.848309
RightForeArm -154.109576 -0.000000 34.778387
RightHand -1.798674 -0.000000 -1.879630
RightHandThumb1 -24.326973 -0.000000 -32.862282
LeftUpLeg -0.919773 24.030531 5.747428
LeftLeg 8.677063 -0.000000 -0.000000
LeftFoot -22.610663 10.556696 -24.578086
LeftToeBase 14.784165 -0.000000 -0.000000
RightUpLeg -8.441691 1.663322 -0.162230
RightLeg 9.199868 -0.000000 -0.000000
RightFoot -11.049993 3.879636 11.666530
RightToeBase 10.395491 -0.000000 -0.000000
493
root -0.848105 36.845430 5.262791 7.619246 -20.510098 -3.613048
Spine -3.280982 -1.199103 -1.241195
Head -0.086935 0.011177 6.479930
LeftShoulder 0.798882 -5.686218 1.269271
LeftArm 8.325347 15.691710 -64.195331
LeftForeArm -63.462873 -0.000000 132.568066
LeftHand 4.535339 -0.000000 -29.697682
LeftHandThumb1 -26.253704 0.000000 33.147579
RightShoulder -2.749978 -23.062282 2.016020
RightArm 26.696053 -35.267964 50.870320
RightForeArm -154.251500 0.000000 34.701678
RightHand -1.768822 -0.000000 -1.937780
RightHandThumb1 -24.326973 -0.000000 -32.862282
LeftUpLeg -0.922957 24.058420 5.735780
LeftLeg 8.684176 -0.000000 -0.000000
LeftFoot -22.624802 10.558244 -24.588621
LeftToeBase 14.817474 -0.000000 -0.000000
RightUpLeg -8.452259 1.673748 -0.171406
RightLeg 9.212058 -0.000000 -0.000000
RightFoot -11.042578 3.884150 11.668575
RightToeBase 10.400145 -0.000000 -0.000000
494
root -0.844989 36.845311 5.261243 7.611999 -20.541050 -3.611646
Spine -3.286007 -1.219143 -1.232627
Head -0.049136 0.053144 6.436006
LeftShoulder 0.858453 -5.758223 1.200264
LeftArm 8.167680 15.948007 -64.150790
LeftForeArm -63.896002 -0.000000 131.794250
LeftHand 4.236167 -0.000000 -29.192590
LeftHandThumb1 -26.253704 0.000000 33.147579
RightShoulder -2.731199 -23.073272 1.989487
RightArm 26.721485 -35.265662 50.904386
RightForeArm -154.429408 -0.000000 34.620458
RightHand -1.757068 -0.000000 -1.920663
RightHandThumb1 -24.326973 -0.000000 -32.862282
LeftUpLeg -0.917810 24.093579 5.731630
LeftLeg 8.695919 -0.000000 -0.000000
LeftFoot -22.629118 10.544676 -24.584086
LeftToeBase 14.827406 -0.000000 -0.000000
RightUpLeg -8.455572 1.705674 -0.181116
RightLeg 9.217946 -0.000000 -0.000000
RightFoot -11.040726 3.881255 11.689559
RightToeBase 10.433674 -0.000000 -0.000000
495
root -0.841184 36.846019 5.260795 7.615225 -20.564653 -3.610270
Spine -3.297534 -1.252591 -1.237172
Head -0.039433 0.098280 6.441275
LeftShoulder 0.786142 -5.622094 1.114030
LeftArm 8.335730 16.245380 -64.000160
LeftForeArm -64.363403 -0.000000 130.871393
LeftHand 3.998097 -0.000000 -28.829131
LeftHandThumb1 -26.253704 0.000000 33.147579
RightShoulder -2.721234 -23.063725 1.992606
RightArm 26.711571 -35.258337 50.933246
RightForeArm -154.598868 -0.000000 34.553497
RightHand -1.725644 -0.000000 -1.946984
RightHandThumb1 -24.326973 -0.000000 -32.862282
LeftUpLeg -0.919581 24.128028 5.721897
LeftLeg 8.696898 -0.000000 -0.000000
LeftFoot -22.615298 10.537320 -24.570499
LeftToeBase 14.796349 -0.000000 -0.000000
RightUpLeg -8.468645 1.708174 -0.191025
RightLeg 9.226615 -0.000000 -0.000000
RightFoot -11.020607 3.915671 11.692707
RightToeBase 10.405442 -0.000000 -0.000000
496
root -0.837077 36.846676 5.259615 7.630122 -20.585375 -3.611672
Spine -3.320453 -1.308703 -1.230149
Head -0.031843 0.173419 6.429239
LeftShoulder 0.692505 -5.530268 1.037817
LeftArm 8.450581 16.630832 -63.889058
LeftForeArm -64.775343 -0.000000 129.912496
LeftHand 3.724453 -0.000000 -28.125552
LeftHandThumb1 -26.253704 0.000000 33.147579
RightShoulder -2.698524 -23.062565 1.987882
RightArm 26.716887 -35.260862 50.939424
RightForeArm -154.720225 -0.000000 34.500432
RightHand -1.704392 -0.000000 -1.955327
RightHandThumb1 -24.326973 -0.000000 -32.862282
LeftUpLeg -0.938153 24.165606 5.708856
LeftLeg 8.700450 -0.000000 -0.000000
LeftFoot -22.608575 10.527964 -24.555358
LeftToeBase 14.803709 -0.000000 -0.000000
RightUpLeg -8.490327 1.716411 -0.196823
RightLeg 9.225678 -0.000000 -0.000000
RightFoot -11.007967 3.919020 11.691588
RightToeBase 10.408545 -0.000000 -0.000000
